# xmcd
#
# Track frame offsets:
#	150
#	27187
#	49556
#	69019
#	101605
#	126037
#	157512
#	175684
#	191059
#	208620
#	233248
#	254894
#	280152
#
# Disc length: 4220 seconds
#
# Revision: 1
# Processed by: cddbd v1.5.2PL0 Copyright (c) Steve Scherf et al.
# Submitted via: EasyCDDAExtractor 15.3.0.1
#
DISCID=a8107a0d
DTITLE=The Band of Heathens - The Double Down - Live in Denver Vol. 2
DYEAR=2012
DGENRE=Americana
TTITLE0=Medicine Man
TTITLE1=Talking out Loud
TTITLE2=Jackson Station
TTITLE3=Judas ´Scariot Blues
TTITLE4=The other Broadway
TTITLE5=Nine Steps Down
TTITLE6=Second Line
TTITLE7=Polaroid
TTITLE8=Gris Gris Satchel
TTITLE9=Shine a light
TTITLE10=Free again
TTITLE11=Gravity
TTITLE12=I ain´t running
EXTD=
EXTT0=
EXTT1=
EXTT2=
EXTT3=
EXTT4=
EXTT5=
EXTT6=
EXTT7=
EXTT8=
EXTT9=
EXTT10=
EXTT11=
EXTT12=
PLAYORDER=
